<?xml version="1.0" encoding="utf-8"?>
<!-- Generator: Adobe Illustrator 13.0.0, SVG Export Plug-In  -->
<!DOCTYPE svg PUBLIC "-//W3C//DTD SVG 1.1//EN" "http://www.w3.org/Graphics/SVG/1.1/DTD/svg11.dtd" [
	<!ENTITY ns_flows "http://ns.adobe.com/Flows/1.0/">
]>
<svg version="1.1"
	 xmlns="http://www.w3.org/2000/svg" xmlns:xlink="http://www.w3.org/1999/xlink" xmlns:a="http://ns.adobe.com/AdobeSVGViewerExtensions/3.0/"
	 x="0px" y="0px" width="300px" height="300px" viewBox="-5.756 -5.686 300 300" enable-background="new -5.756 -5.686 300 300"
	 xml:space="preserve">
<defs>
</defs>
<path fill-rule="evenodd" clip-rule="evenodd" d="M151.8,187.454c-17.07,13.596-24.752,36.58-32.2,59.8
	c-5.781-19.714-13.396-31.077-11.5-50.6c-2.057,6.21-9.334-1.067-6.9-6.9c-8.697-3.329-4.414,6.32-11.5,4.6
	c-3.501-33.415,17.834-54.216,27.6-66.7c-58.385,20.433-60.442,138.793,0,158.7c211.649,23.468,224.193-266.001,46-285.2
	C65.663-9.366,8.046,53.526,0,129.954c38.875-44.69,133.27-33.862,158.701-92c2.91-7.729-9.007-12.166-2.3-16.1
	c8.368,16.482,15.035,43.253,13.8,62.1c15.138,9.393,29.998,19.067,36.8,36.8c-9.89,25.834,15.747,28.213,13.8,52.9
	c-7.224,1.161-9.397-5.42-11.5,2.3c2.706,0.359,6.529-0.396,6.899,2.3c-11.354,15.233-45.964,35.863-66.699,13.8
	C162.094,189.489,171.977,183.465,151.8,187.454z"/>
<path fill-rule="evenodd" clip-rule="evenodd" stroke="#000000" d="M190.9,143.754c1.501-10.033-15.111-13.888-20.699-9.2
	C179.876,134.846,181.224,143.462,190.9,143.754z"/>
<path fill-rule="evenodd" clip-rule="evenodd" stroke="#000000" d="M128.8,182.854c10.891-12.924,36.25-7.155,50.6-11.5
	C160.641,166.65,129.771,171.035,128.8,182.854z"/>
<path fill-rule="evenodd" clip-rule="evenodd" stroke="#000000" d="M131.1,194.354c10.826-7.575,24.429-12.371,39.101-16.1
	C151.211,177.665,139.777,184.631,131.1,194.354z"/>
</svg>
